<?xml version="1.0" encoding="UTF-8" standalone="no"?>
<svg>
  <path
     id="path31"
     style="fill: none;stroke: #000;stroke-miterlimit: 10;stroke-width: 5px"
     transform="translate(-201.29 -278.89)"
     d="M305,325.6c1.65,24.72-12.7,47-34,54.4-25.9,9-48.34-8.77-49.63-9.83l.17-58.28" />
  <path
     id="path33"
     style="fill: none;stroke: #000;stroke-miterlimit: 10;stroke-width: 5px"
     transform="translate(-201.29 -278.89)"
     d="M213.69,362.35c-13.72-18.39-13.14-45,1.52-62.67,15-18.12,40.13-22.65,59.52-14.15,18.1,7.93,25.29,24.59,26.91,28.64l-34,.24-18.71,0" />
  <path
     id="path35"
     style="fill: none;stroke: #000;stroke-miterlimit: 10;stroke-width: 5px"
     transform="translate(-201.29 -278.89)"
     d="M222.1,313.43,248.41,349Z" />
  <path
     id="path37"
     style="fill: none;stroke: #000;stroke-miterlimit: 10;stroke-width: 5px"
     transform="translate(-201.29 -278.89)"
     d="M249,350.63v0Z" />
  <line
     id="line39"
     style="fill: none;stroke: #000;stroke-miterlimit: 10;stroke-width: 5px"
     y2="71.91"
     x2="75.11"
     y1="37.84"
     x1="75.11" />
  <path
     id="path41"
     style="stroke: #fff;stroke-miterlimit: 10;stroke-width: 5px"
     transform="translate(-201.29 -278.89)"
     d="M214.13,363.91v0Z" />
  <line
     id="line43"
     style="stroke: #fff;stroke-miterlimit: 10;stroke-width: 5px"
     y2="45.44"
     x2="97.02"
     y1="45.44"
     x1="106.86" />
  <line
     x1="47.709999"
     y1="33.086678"
     x2="47.709999"
     y2="71.498772"
     style="fill:none;stroke:#000000;stroke-width:5.30906px;stroke-miterlimit:10"
     id="line52" />
  <rect
     y="75.560989"
     x="10.396679"
     height="9.3912621"
     width="4.0106215"
     id="rect171"
     style="fill:#ffffff;stroke-width:1.00894" />
</svg>
